<svg width="24" height="24" viewBox="0 0 24 24" fill="none" xmlns="http://www.w3.org/2000/svg">
<path d="M3.55 3.55C3 4.098 3 4.982 3 6.75C3 8.519 3 9.403 3.55 9.95C4.098 10.5 4.982 10.5 6.75 10.5C8.518 10.5 9.402 10.5 9.95 9.95C10.5 9.402 10.5 8.518 10.5 6.75C10.5 4.982 10.5 4.098 9.95 3.55C9.402 3 8.519 3 6.75 3C4.981 3 4.097 3 3.55 3.55Z" stroke="white" stroke-width="1.5" stroke-linecap="round" stroke-linejoin="round"/>
<path d="M3.55 14.057C3 14.605 3 15.489 3 17.257C3 19.025 3 19.91 3.55 20.457C4.098 21.007 4.982 21.007 6.75 21.007C8.518 21.007 9.402 21.007 9.95 20.457C10.5 19.909 10.5 19.025 10.5 17.257C10.5 15.489 10.5 14.605 9.95 14.057C9.402 13.507 8.518 13.507 6.75 13.507C4.982 13.507 4.098 13.507 3.55 14.057Z" stroke="white" stroke-width="1.5" stroke-linecap="round" stroke-linejoin="round"/>
<path d="M14.05 3.55C13.5 4.098 13.5 4.982 13.5 6.75C13.5 8.518 13.5 9.402 14.05 9.95C14.598 10.5 15.482 10.5 17.25 10.5C19.018 10.5 19.902 10.5 20.45 9.95C21 9.402 21 8.518 21 6.75C21 4.982 21 4.098 20.45 3.55C19.902 3 19.018 3 17.25 3C15.482 3 14.598 3 14.05 3.55Z" stroke="white" stroke-width="1.5" stroke-linecap="round" stroke-linejoin="round"/>
<path d="M14.05 14.057C13.5 14.605 13.5 15.489 13.5 17.257C13.5 19.025 13.5 19.909 14.05 20.457C14.598 21.007 15.482 21.007 17.25 21.007C19.018 21.007 19.902 21.007 20.45 20.457C21 19.909 21 19.025 21 17.257C21 15.489 21 14.605 20.45 14.057C19.902 13.507 19.018 13.507 17.25 13.507C15.482 13.507 14.598 13.507 14.05 14.057Z" stroke="white" stroke-width="1.5" stroke-linecap="round" stroke-linejoin="round"/>
</svg>
